<?xml version="1.0" encoding="utf-8"?>
<!-- Generator: Adobe Illustrator 16.0.0, SVG Export Plug-In . SVG Version: 6.00 Build 0)  -->
<!DOCTYPE svg PUBLIC "-//W3C//DTD SVG 1.1//EN" "http://www.w3.org/Graphics/SVG/1.1/DTD/svg11.dtd">
<svg version="1.1" id="Layer_2" xmlns="http://www.w3.org/2000/svg" xmlns:xlink="http://www.w3.org/1999/xlink" x="0px" y="0px"
	 width="446.879px" height="34.29px" viewBox="0 0 446.879 34.29" style="enable-background:new 0 0 446.879 34.29;"
	 xml:space="preserve">
<style type="text/css">
<![CDATA[
	.st0{fill-rule:evenodd;clip-rule:evenodd;fill:none;}
	.st1{fill-rule:evenodd;clip-rule:evenodd;}
	.st2{fill:none;}
]]>
</style>
<g>
	<path class="st2" d="M446.879,0c0,11.414,0,22.853-0.001,34.29c-148.941,0-297.883,0-446.878,0C0,22.825,0,11.427,0,0
		 M425.843,11.77c-1.221-4.447-7.688-8.711-14.368-6.834c-6.668,1.873-10.395,8.514-8.512,15.037
		c1.82,6.304,8.819,9.959,15.369,8.122c5.322-1.493,9.324-6.805,8.613-11.681c-4.935,0-9.871,0-14.882,0c0,1.328,0,2.581,0,3.972
		c3.155,0,6.24,0,9.382,0c-1.233,2.832-4.288,4.407-7.683,4.07c-3.259-0.325-6.082-2.981-6.74-6.246
		c-0.746-3.702,1.258-7.265,4.014-8.737c3.315-1.773,6.415-1.07,9.826,2.297C422.481,11.77,424.11,11.77,425.843,11.77z
		 M395.492,21.314c-0.063,0.019-0.126,0.037-0.189,0.057c-3.075-5.434-6.151-10.867-9.209-16.269c-1.673,0-3.29,0-4.907,0
		c0,7.667,0,15.248,0,22.854c1.432,0,2.8,0,4.294,0c0-5.4,0-10.714,0-16.027c0.063-0.011,0.127-0.022,0.19-0.034
		c3.093,5.382,6.186,10.763,9.229,16.06c1.708,0,3.286,0,4.855,0c0-7.671,0-15.251,0-22.847c-1.439,0-2.809,0-4.263,0
		C395.492,10.569,395.492,15.941,395.492,21.314z M349.423,5.048c0,3.16,0,6.216,0,9.284c-2.771,0-5.419,0-8.189,0
		c0-3.139,0-6.193,0-9.251c-1.463,0-2.804,0-4.178,0c0,7.669,0,15.274,0,22.905c1.42,0,2.76,0,4.229,0c0-3.188,0-6.318,0-9.461
		c2.783,0,5.435,0,8.215,0c0,3.21,0,6.342,0,9.443c1.472,0,2.812,0,4.153,0c0-7.681,0-15.285,0-22.921
		C352.252,5.048,350.94,5.048,349.423,5.048z M329.383,21.608c-3.719,4.202-8.147,3.282-10.681,0.762
		c-3.246-3.231-3.452-7.937-0.447-11.317c3.076-3.46,6.995-3.289,11.446,0.468c1.561,0,3.148,0,4.756,0
		c-1.412-4.054-6.334-7.886-12.664-6.892c-6.282,0.988-10.657,6.706-9.971,13.002c0.754,6.916,6.346,10.69,10.947,10.871
		c5.486,0.216,10.971-3.141,11.456-6.894C332.628,21.608,331.033,21.608,329.383,21.608z M212.667,8.385
		c0.104,0.002,0.209,0.004,0.313,0.006c0,6.533,0,13.065,0,19.566c0.84,0,1.537,0,2.232,0c0-7.667,0-15.248,0-22.885
		c-1.202,0-2.344,0-3.547,0c-2.73,6.379-5.458,12.75-8.283,19.35c-2.827-6.631-5.542-13-8.243-19.338c-1.231,0-2.374,0-3.531,0
		c0,7.678,0,15.287,0,22.876c0.782,0,1.479,0,2.276,0c0-6.578,0-13.071,0-19.564c0.075-0.017,0.15-0.034,0.226-0.051
		c2.732,6.558,5.464,13.115,8.189,19.657c0.763,0,1.436,0,2.14,0C207.189,21.446,209.928,14.916,212.667,8.385z M360.918,28.016
		c2.12-5.559,4.231-11.094,6.392-16.756c2.208,5.671,4.367,11.218,6.5,16.696c1.682,0,3.203,0,4.843,0
		c-3.221-7.717-6.392-15.317-9.559-22.903c-1.211,0-2.325,0-3.505,0c-3.158,7.625-6.313,15.241-9.512,22.963
		C357.781,28.016,359.257,28.016,360.918,28.016z M292.354,8.267c0.065-0.024,0.131-0.048,0.195-0.071
		c4.466,6.629,8.931,13.258,13.312,19.764c0.925,0,1.666,0,2.427,0c0-7.663,0-15.24,0-22.881c-0.762,0-1.458,0-2.32,0
		c0,6.266,0,12.488,0,18.71c-0.069,0.009-0.139,0.017-0.207,0.025c-4.184-6.271-8.367-12.542-12.485-18.715
		c-1.172,0-2.193,0-3.245,0c0,7.659,0,15.237,0,22.853c0.788,0,1.513,0,2.324,0C292.354,21.327,292.354,14.797,292.354,8.267z
		 M125.856,28.015c0-7.727,0-15.333,0-22.911c-0.795,0-1.493,0-2.307,0c0,6.283,0,12.48,0,18.678
		c-0.061,0.014-0.122,0.027-0.183,0.041c-4.182-6.268-8.363-12.536-12.499-18.734c-1.14,0-2.164,0-3.208,0c0,7.68,0,15.288,0,22.873
		c0.792,0,1.49,0,2.33,0c0-6.627,0-13.171,0-19.715c0.061-0.008,0.122-0.016,0.183-0.023c4.453,6.613,8.906,13.228,13.325,19.792
		C124.333,28.015,125.049,28.015,125.856,28.015z M91.947,28.595c6.826-0.041,12.252-5.484,12.152-12.305
		c-0.096-6.523-5.477-11.871-12.273-11.815c-6.877,0.057-12.124,5.461-12.097,12.354C79.752,23.21,85.385,28.634,91.947,28.595z
		 M156.993,28.595c6.833-0.05,12.249-5.487,12.146-12.311c-0.098-6.539-5.5-11.872-12.279-11.809
		c-6.931,0.065-12.154,5.503-12.092,12.479C144.825,23.252,150.486,28.643,156.993,28.595z M274.36,28.595
		c6.841-0.062,12.244-5.492,12.138-12.317c-0.103-6.536-5.501-11.873-12.286-11.801c-6.939,0.072-12.149,5.509-12.084,12.485
		C262.187,23.256,267.863,28.653,274.36,28.595z M77.044,11.041c-1.524-3.797-6.358-7.385-12.473-6.426
		c-5.923,0.928-10.065,6.035-10.043,12.188c0.021,5.716,4.312,10.748,10.093,11.648c5.946,0.927,10.808-2.578,12.447-6.395
		c-0.469,0-0.9,0-1.331,0c-0.432,0-0.864,0-1.215,0c-4.367,5.56-10.448,5.377-14.379,1.677c-4.222-3.974-4.2-9.897-0.345-14.005
		c1.766-1.882,3.929-3.008,6.539-3.042c3.508-0.046,6.166,1.606,8.144,4.354C75.354,11.041,76.143,11.041,77.044,11.041z
		 M229.15,7.791c2.909,6.895,5.72,13.555,8.51,20.166c0.915,0,1.723,0,2.655,0c-3.304-7.722-6.556-15.322-9.795-22.892
		c-0.978,0-1.847,0-2.774,0c-3.243,7.629-6.477,15.237-9.75,22.94c0.926,0,1.678,0,2.524,0
		C223.358,21.357,226.202,14.697,229.15,7.791z M184.804,27.984c1.072,0,1.973,0,3.056,0c-2.157-2.866-4.219-5.606-6.316-8.394
		c0.285-0.107,0.357-0.149,0.434-0.161c3.558-0.533,6.12-3.184,6.177-6.393c0.075-4.223-2.062-7.26-5.896-7.726
		c-3.111-0.378-6.284-0.247-9.429-0.335c-0.059-0.002-0.12,0.086-0.188,0.139c0,0.653,0,1.31,0,2.038
		c2.225,0,4.376-0.022,6.527,0.011c0.833,0.014,1.678,0.082,2.493,0.248c3.858,0.783,5.466,5.232,2.952,8.174
		c-1.131,1.323-2.671,1.839-4.363,1.912c-1.011,0.045-2.025,0.009-3.3,0.009C179.707,21.185,182.263,24.595,184.804,27.984z
		 M246.25,27.961c0.859,0,1.557,0,2.388,0c0-6.967,0-13.852,0-20.846c1.796,0,3.455,0,5.149,0c0-0.768,0-1.42,0-2.115
		c-4.296,0-8.506,0-12.753,0c0,0.736,0,1.393,0,2.184c1.757,0,3.449,0,5.216,0C246.25,14.178,246.25,21.035,246.25,27.961z
		 M256.405,5.052c0,7.72,0,15.321,0,22.992c0.433,0,0.786,0.01,1.14-0.002c0.345-0.012,0.688-0.045,1.04-0.069
		c0-7.687,0-15.286,0-22.921C257.828,5.052,257.158,5.052,256.405,5.052z M33.758,28.016c0-7.725,0-15.341,0-22.934
		c-0.302,0-0.528,0-0.886,0c0,3.666,0,7.279,0,10.894c-4.306,0-8.479,0-12.781,0c0-3.691,0-7.304,0-10.887c-0.353,0-0.575,0-0.811,0
		c0,7.678,0,15.294,0,22.893c0.302,0,0.527,0,0.887,0c0-3.704,0-7.356,0-11.03c4.309,0,8.482,0,12.785,0c0,3.743,0,7.397,0,11.064
		C33.282,28.016,33.479,28.016,33.758,28.016z M132.919,17.66c3.075,0,5.967,0,8.848,0c0-0.744,0-1.365,0-2.006
		c-3.752,0-7.438,0-11.115,0c0,4.164,0,8.249,0,12.304c0.784,0,1.48,0,2.267,0C132.919,24.535,132.919,21.198,132.919,17.66z
		 M442.206,5.101c-4.143,0-8.218,0-12.304,0c0,1.265,0,2.444,0,3.657c4.133,0,8.207,0,12.304,0
		C442.206,7.493,442.206,6.316,442.206,5.101z M442.214,24.292c-4.188,0-8.237,0-12.277,0c0,1.286,0,2.495,0,3.675
		c4.139,0,8.186,0,12.277,0C442.214,26.712,442.214,25.534,442.214,24.292z M441.864,14.938c-4.025,0-7.985,0-11.921,0
		c0,1.293,0,2.503,0,3.667c4.031,0,7.966,0,11.921,0C441.864,17.344,441.864,16.164,441.864,14.938z M10.571,27.982
		c0-7.376,0-14.666,0-22.104c2.125,0,4.136,0,6.192,0c-0.02-0.367-0.031-0.582-0.044-0.812c-4.483,0-8.865,0-13.328,0
		c0.025,0.302,0.046,0.546,0.074,0.886c2.066,0,4.047,0,6.134,0c0,7.395,0,14.688,0,22.029
		C9.932,27.982,10.158,27.982,10.571,27.982z M142.106,5.009c-3.916,0-7.683,0-11.472,0c0,0.666,0,1.243,0,1.819
		c3.869,0,7.669,0,11.472,0C142.106,6.186,142.106,5.639,142.106,5.009z M38.666,16.693c4.197,0,8.368,0,12.58,0
		c0.012-0.192,0.021-0.34,0.036-0.564c-4.204,0-8.375,0-12.582,0C38.688,16.318,38.679,16.47,38.666,16.693z M38.667,5.654
		c4.197,0,8.368,0,12.58,0c0.012-0.193,0.021-0.342,0.034-0.564c-4.204,0-8.375,0-12.582,0C38.688,5.279,38.679,5.431,38.667,5.654z
		 M51.475,27.422c-4.384,0-8.55,0-12.755,0c0,0.188,0,0.359,0,0.623c0.442,0,0.834,0,1.228,0c3.353,0,6.706,0,10.059-0.001
		c0.319,0,0.649,0.034,0.953-0.038C51.112,27.969,51.216,27.728,51.475,27.422z"/>
	<path class="st1" d="M425.843,11.77c-1.732,0-3.361,0-4.98,0c-3.411-3.367-6.511-4.07-9.826-2.297
		c-2.756,1.473-4.76,5.035-4.014,8.737c0.658,3.265,3.481,5.921,6.74,6.246c3.395,0.337,6.449-1.238,7.683-4.07
		c-3.142,0-6.227,0-9.382,0c0-1.391,0-2.644,0-3.972c5.011,0,9.947,0,14.882,0c0.711,4.876-3.291,10.188-8.613,11.681
		c-6.55,1.837-13.549-1.818-15.369-8.122c-1.883-6.523,1.844-13.164,8.512-15.037C418.154,3.059,424.622,7.322,425.843,11.77z"/>
	<path class="st1" d="M395.492,21.314c0-5.373,0-10.745,0-16.207c1.454,0,2.823,0,4.263,0c0,7.596,0,15.176,0,22.847
		c-1.569,0-3.147,0-4.855,0c-3.043-5.297-6.136-10.678-9.229-16.06c-0.063,0.012-0.127,0.023-0.19,0.034c0,5.313,0,10.627,0,16.027
		c-1.494,0-2.862,0-4.294,0c0-7.605,0-15.187,0-22.854c1.617,0,3.234,0,4.907,0c3.058,5.401,6.134,10.835,9.209,16.269
		C395.366,21.352,395.429,21.333,395.492,21.314z"/>
	<path class="st1" d="M349.423,5.048c1.518,0,2.829,0,4.23,0c0,7.636,0,15.24,0,22.921c-1.342,0-2.682,0-4.153,0
		c0-3.102,0-6.233,0-9.443c-2.78,0-5.432,0-8.215,0c0,3.143,0,6.273,0,9.461c-1.47,0-2.81,0-4.229,0c0-7.631,0-15.236,0-22.905
		c1.374,0,2.715,0,4.178,0c0,3.058,0,6.112,0,9.251c2.771,0,5.419,0,8.189,0C349.423,11.264,349.423,8.208,349.423,5.048z"/>
	<path class="st1" d="M329.383,21.608c1.65,0,3.245,0,4.843,0c-0.485,3.753-5.97,7.109-11.456,6.894
		c-4.602-0.181-10.193-3.955-10.947-10.871c-0.687-6.296,3.688-12.014,9.971-13.002c6.33-0.994,11.252,2.838,12.664,6.892
		c-1.607,0-3.195,0-4.756,0c-4.451-3.757-8.37-3.928-11.446-0.468c-3.005,3.381-2.799,8.086,0.447,11.317
		C321.235,24.891,325.664,25.811,329.383,21.608z"/>
	<path class="st1" d="M212.667,8.385c-2.739,6.531-5.478,13.062-8.228,19.617c-0.704,0-1.377,0-2.14,0
		c-2.725-6.542-5.457-13.1-8.189-19.657c-0.075,0.017-0.15,0.034-0.226,0.051c0,6.493,0,12.986,0,19.564c-0.797,0-1.494,0-2.276,0
		c0-7.589,0-15.198,0-22.876c1.157,0,2.299,0,3.531,0c2.702,6.338,5.417,12.707,8.243,19.338c2.825-6.6,5.552-12.971,8.283-19.35
		c1.204,0,2.345,0,3.547,0c0,7.637,0,15.218,0,22.885c-0.695,0-1.393,0-2.232,0c0-6.501,0-13.033,0-19.566
		C212.876,8.389,212.771,8.387,212.667,8.385z"/>
	<path class="st1" d="M360.918,28.016c-1.661,0-3.137,0-4.841,0c3.198-7.722,6.354-15.338,9.512-22.963c1.18,0,2.294,0,3.505,0
		c3.167,7.586,6.338,15.187,9.559,22.903c-1.64,0-3.161,0-4.843,0c-2.133-5.479-4.292-11.025-6.5-16.696
		C365.149,16.922,363.038,22.457,360.918,28.016z"/>
	<path class="st1" d="M292.354,8.267c0,6.53,0,13.061,0,19.685c-0.812,0-1.536,0-2.324,0c0-7.615,0-15.193,0-22.853
		c1.052,0,2.073,0,3.245,0c4.118,6.173,8.302,12.444,12.485,18.715c0.068-0.009,0.138-0.017,0.207-0.025c0-6.222,0-12.444,0-18.71
		c0.862,0,1.559,0,2.32,0c0,7.641,0,15.218,0,22.881c-0.761,0-1.502,0-2.427,0c-4.381-6.506-8.846-13.135-13.312-19.764
		C292.484,8.219,292.419,8.242,292.354,8.267z"/>
	<path class="st1" d="M125.856,28.015c-0.807,0-1.523,0-2.359,0c-4.419-6.564-8.873-13.179-13.325-19.792
		c-0.061,0.008-0.122,0.016-0.183,0.023c0,6.544,0,13.088,0,19.715c-0.839,0-1.538,0-2.33,0c0-7.585,0-15.193,0-22.873
		c1.044,0,2.068,0,3.208,0c4.135,6.198,8.317,12.467,12.499,18.734c0.061-0.014,0.122-0.027,0.183-0.041c0-6.197,0-12.395,0-18.678
		c0.814,0,1.512,0,2.307,0C125.856,12.682,125.856,20.288,125.856,28.015z"/>
	<path class="st1" d="M91.947,28.595c-6.562,0.039-12.194-5.385-12.219-11.767c-0.027-6.893,5.22-12.297,12.097-12.354
		c6.796-0.056,12.178,5.292,12.273,11.815C104.199,23.11,98.773,28.554,91.947,28.595z M91.938,6.674
		c-4.729-0.034-9.81,3.635-9.787,9.998c0.021,6.244,5.233,9.686,9.695,9.718c4.555,0.032,9.82-3.391,9.846-9.803
		C101.717,10.388,96.727,6.701,91.938,6.674z"/>
	<path class="st1" d="M156.993,28.595c-6.507,0.048-12.168-5.343-12.225-11.641c-0.062-6.976,5.161-12.413,12.092-12.479
		c6.779-0.063,12.181,5.27,12.279,11.809C169.241,23.107,163.825,28.545,156.993,28.595z M156.862,26.388
		c4.503,0.058,9.82-3.314,9.869-9.777c0.048-6.173-4.917-9.892-9.73-9.938c-4.693-0.045-9.812,3.571-9.811,9.976
		C147.191,22.883,152.385,26.348,156.862,26.388z"/>
	<path class="st1" d="M274.36,28.595c-6.497,0.059-12.174-5.339-12.232-11.633c-0.065-6.977,5.145-12.413,12.084-12.485
		c6.785-0.072,12.184,5.265,12.286,11.801C286.604,23.103,281.201,28.532,274.36,28.595z M274.202,26.387
		c4.463,0.071,9.816-3.251,9.89-9.757c0.068-6.106-4.832-9.895-9.71-9.956c-4.675-0.061-9.812,3.533-9.832,9.955
		C264.531,22.796,269.662,26.332,274.202,26.387z"/>
	<path class="st1" d="M77.044,11.041c-0.901,0-1.689,0-2.564,0c-1.978-2.748-4.636-4.4-8.144-4.354
		c-2.61,0.034-4.773,1.16-6.539,3.042c-3.854,4.107-3.876,10.031,0.345,14.005c3.931,3.7,10.012,3.883,14.379-1.677
		c0.351,0,0.783,0,1.215,0c0.431,0,0.862,0,1.331,0c-1.64,3.816-6.501,7.321-12.447,6.395c-5.781-0.9-10.072-5.933-10.093-11.648
		c-0.021-6.152,4.12-11.26,10.043-12.188C70.686,3.656,75.52,7.244,77.044,11.041z"/>
	<path class="st1" d="M229.15,7.791c-2.948,6.906-5.792,13.566-8.63,20.215c-0.846,0-1.598,0-2.524,0
		c3.274-7.703,6.507-15.312,9.75-22.94c0.928,0,1.797,0,2.774,0c3.239,7.569,6.491,15.17,9.795,22.892c-0.933,0-1.74,0-2.655,0
		C234.87,21.346,232.06,14.686,229.15,7.791z"/>
	<path class="st1" d="M184.804,27.984c-2.541-3.39-5.097-6.8-7.854-10.478c1.275,0,2.29,0.036,3.3-0.009
		c1.692-0.073,3.232-0.589,4.363-1.912c2.514-2.941,0.906-7.391-2.952-8.174c-0.815-0.166-1.66-0.234-2.493-0.248
		c-2.15-0.033-4.302-0.011-6.527-0.011c0-0.729,0-1.385,0-2.038c0.068-0.053,0.129-0.141,0.188-0.139
		c3.146,0.088,6.318-0.043,9.429,0.335c3.834,0.466,5.971,3.503,5.896,7.726c-0.057,3.209-2.619,5.859-6.177,6.393
		c-0.077,0.012-0.148,0.054-0.434,0.161c2.098,2.787,4.16,5.527,6.316,8.394C186.776,27.984,185.876,27.984,184.804,27.984z"/>
	<path class="st1" d="M246.25,27.961c0-6.926,0-13.783,0-20.777c-1.767,0-3.459,0-5.216,0c0-0.791,0-1.447,0-2.184
		c4.247,0,8.457,0,12.753,0c0,0.695,0,1.348,0,2.115c-1.694,0-3.354,0-5.149,0c0,6.994,0,13.879,0,20.846
		C247.807,27.961,247.109,27.961,246.25,27.961z"/>
	<path class="st1" d="M256.405,5.052c0.753,0,1.423,0,2.18,0c0,7.635,0,15.234,0,22.921c-0.352,0.024-0.695,0.058-1.04,0.069
		c-0.354,0.012-0.707,0.002-1.14,0.002C256.405,20.373,256.405,12.771,256.405,5.052z"/>
	<path class="st1" d="M33.758,28.016c-0.279,0-0.477,0-0.806,0c0-3.667,0-7.321,0-11.064c-4.303,0-8.477,0-12.785,0
		c0,3.674,0,7.326,0,11.03c-0.36,0-0.585,0-0.887,0c0-7.599,0-15.215,0-22.893c0.236,0,0.458,0,0.811,0c0,3.583,0,7.195,0,10.887
		c4.302,0,8.475,0,12.781,0c0-3.614,0-7.228,0-10.894c0.358,0,0.584,0,0.886,0C33.758,12.675,33.758,20.291,33.758,28.016z"/>
	<path class="st1" d="M132.919,17.66c0,3.538,0,6.875,0,10.298c-0.787,0-1.483,0-2.267,0c0-4.055,0-8.14,0-12.304
		c3.678,0,7.363,0,11.115,0c0,0.641,0,1.262,0,2.006C138.886,17.66,135.994,17.66,132.919,17.66z"/>
	<path class="st1" d="M442.206,5.101c0,1.216,0,2.393,0,3.657c-4.097,0-8.171,0-12.304,0c0-1.213,0-2.393,0-3.657
		C433.988,5.101,438.063,5.101,442.206,5.101z"/>
	<path class="st1" d="M442.214,24.292c0,1.242,0,2.42,0,3.675c-4.092,0-8.139,0-12.277,0c0-1.18,0-2.389,0-3.675
		C433.977,24.292,438.025,24.292,442.214,24.292z"/>
	<path class="st1" d="M441.864,14.938c0,1.227,0,2.406,0,3.667c-3.955,0-7.89,0-11.921,0c0-1.164,0-2.374,0-3.667
		C433.879,14.938,437.839,14.938,441.864,14.938z"/>
	<path class="st1" d="M10.571,27.982c-0.413,0-0.64,0-0.972,0c0-7.342,0-14.635,0-22.029c-2.087,0-4.067,0-6.134,0
		c-0.028-0.34-0.049-0.584-0.074-0.886c4.462,0,8.845,0,13.328,0c0.013,0.229,0.024,0.444,0.044,0.812c-2.056,0-4.067,0-6.192,0
		C10.571,13.316,10.571,20.606,10.571,27.982z"/>
	<path class="st1" d="M142.106,5.009c0,0.63,0,1.177,0,1.819c-3.803,0-7.604,0-11.472,0c0-0.576,0-1.153,0-1.819
		C134.423,5.009,138.19,5.009,142.106,5.009z"/>
	<path class="st1" d="M38.666,16.693c0.013-0.224,0.022-0.375,0.034-0.564c4.207,0,8.377,0,12.582,0
		c-0.014,0.225-0.023,0.372-0.036,0.564C47.034,16.693,42.863,16.693,38.666,16.693z"/>
	<path class="st1" d="M38.667,5.654c0.013-0.224,0.021-0.375,0.032-0.564c4.207,0,8.377,0,12.582,0
		c-0.014,0.223-0.022,0.371-0.034,0.564C47.034,5.654,42.864,5.654,38.667,5.654z"/>
	<path class="st1" d="M51.475,27.422c-0.259,0.306-0.363,0.547-0.516,0.584c-0.303,0.072-0.633,0.038-0.953,0.038
		c-3.353,0.001-6.706,0.001-10.059,0.001c-0.393,0-0.786,0-1.228,0c0-0.264,0-0.436,0-0.623
		C42.925,27.422,47.091,27.422,51.475,27.422z"/>
	<path class="st0" d="M91.938,6.674c4.789,0.027,9.779,3.714,9.754,9.913c-0.026,6.412-5.292,9.835-9.846,9.803
		c-4.461-0.032-9.673-3.474-9.695-9.718C82.128,10.309,87.209,6.64,91.938,6.674z"/>
	<path class="st0" d="M156.862,26.388c-4.478-0.04-9.671-3.505-9.672-9.739c-0.001-6.404,5.118-10.021,9.811-9.976
		c4.813,0.046,9.778,3.765,9.73,9.938C166.682,23.073,161.366,26.445,156.862,26.388z"/>
	<path class="st0" d="M274.202,26.387c-4.54-0.055-9.671-3.591-9.652-9.758c0.021-6.422,5.157-10.016,9.832-9.955
		c4.878,0.062,9.778,3.85,9.71,9.956C284.019,23.136,278.665,26.458,274.202,26.387z"/>
</g>
</svg>
