<?xml version="1.0" encoding="utf-8"?>
<!-- Generator: Adobe Illustrator 16.0.0, SVG Export Plug-In . SVG Version: 6.00 Build 0)  -->
<!DOCTYPE svg PUBLIC "-//W3C//DTD SVG 1.1//EN" "http://www.w3.org/Graphics/SVG/1.1/DTD/svg11.dtd">
<svg version="1.1" id="Layer_2" xmlns="http://www.w3.org/2000/svg" xmlns:xlink="http://www.w3.org/1999/xlink" x="0px" y="0px"
	 width="446.88px" height="34.32px" viewBox="0 0 446.88 34.32" style="enable-background:new 0 0 446.88 34.32;"
	 xml:space="preserve">
<style type="text/css">
<![CDATA[
	.st0{fill-rule:evenodd;clip-rule:evenodd;fill:none;}
	.st1{fill-rule:evenodd;clip-rule:evenodd;fill:#DCDCDC;}
	.st2{fill:none;}
]]>
</style>
<g>
	<path class="st2" d="M0.24,34.56c0-11.439,0-22.879,0-34.319c148.96,0,297.92,0,446.88,0c0,11.44,0,22.88,0,34.319
		C298.16,34.56,149.2,34.56,0.24,34.56z M426.227,12.228c0-0.251,0.048-0.424-0.007-0.555c-0.728-1.75-1.895-3.211-3.368-4.334
		c-2.202-1.678-4.711-2.651-7.551-2.542c-0.479,0.019-0.96,0.02-1.439-0.001c-0.831-0.037-1.596,0.21-2.387,0.43
		c-2.124,0.592-3.879,1.701-5.423,3.278c-1.093,1.118-1.919,2.373-2.497,3.783c-0.388,0.949-0.736,1.975-0.793,2.983
		c-0.075,1.365-0.17,2.747,0.164,4.131c0.218,0.904,0.451,1.794,0.847,2.619c0.875,1.825,2.083,3.415,3.8,4.521
		c2.107,1.356,4.344,2.396,6.95,2.262c0.438-0.023,0.883-0.034,1.319,0.002c1.113,0.094,2.169-0.181,3.21-0.496
		c1.97-0.598,3.679-1.705,5.108-3.132c1.06-1.058,1.868-2.377,2.425-3.803c0.596-1.524,0.938-3.094,0.837-4.777
		c-5.134,0-10.195,0-15.342,0c0,0.706-0.015,1.376,0.004,2.047c0.019,0.662-0.083,1.335,0.074,1.994c1.631,0,3.19,0,4.75,0
		c1.575,0.001,3.15,0,4.703,0.001c-0.491,1.492-1.585,2.362-2.745,3.083c-1.011,0.628-2.186,0.946-3.405,0.999
		c-0.789,0.034-1.569-0.008-2.325-0.246c-1.499-0.472-2.965-1.076-3.955-2.334c-1.079-1.371-1.98-2.868-1.92-4.742
		c0.01-0.311-0.08-0.611-0.002-0.948c0.088-0.38,0.007-0.796,0.028-1.195c0.008-0.146,0.1-0.287,0.15-0.431
		c0.602-1.696,1.374-3.256,2.908-4.354c1.297-0.928,2.72-1.414,4.28-1.597c1.253-0.147,2.42,0.258,3.476,0.774
		c0.826,0.404,1.701,0.906,2.221,1.793c0.192,0.328,0.547,0.559,0.777,0.785C422.827,12.228,424.465,12.228,426.227,12.228z
		 M381.383,28.262c1.49,0,2.872,0,4.317,0c0-5.361,0-10.664,0-15.967c0.052-0.018,0.104-0.035,0.156-0.053
		c3.086,5.373,6.172,10.746,9.235,16.079c0.904,0,1.703,0.005,2.502-0.002c0.824-0.006,1.65,0.031,2.427-0.023
		c0-7.734,0-15.354,0-22.962c-1.442,0-2.824,0-4.274,0c0,5.433,0,10.813,0,16.457c-3.269-5.649-6.246-11.163-9.411-16.51
		c-0.906,0-1.705-0.006-2.505,0.002c-0.821,0.009-1.647-0.042-2.447,0.035C381.383,13.023,381.383,20.613,381.383,28.262z
		 M337.257,5.304c0,7.729,0,15.349,0,22.966c1.439,0,2.821,0,4.276,0c0-3.192,0-6.334,0-9.513c2.735,0,5.397,0,8.146,0
		c0,1.104,0,2.174,0,3.244c0,1.039-0.011,2.079,0.003,3.118c0.016,1.062-0.063,2.13,0.058,3.208
		c1.467-0.033,2.853,0.041,4.203-0.047c0-7.713,0-15.333,0-22.95c-1.439,0-2.822,0-4.276,0c0,3.112,0,6.174,0,9.272
		c-2.736,0-5.397,0-8.147,0c0-1.064,0-2.093,0-3.124c0-1.039,0.009-2.079-0.002-3.118c-0.01-1.022,0.048-2.049-0.037-3.057
		C340.021,5.304,338.668,5.304,337.257,5.304z M334.844,11.991c-0.084-0.325-0.099-0.558-0.198-0.745
		c-0.829-1.558-1.815-2.952-3.277-4.04c-2.065-1.538-4.286-2.474-6.879-2.399c-1.097,0.032-2.185-0.073-3.291,0.209
		c-2.905,0.744-5.268,2.226-7.02,4.678c-1.467,2.053-2.247,4.311-2.18,6.846c0.008,0.28,0.003,0.56,0.001,0.84
		c-0.014,1.579,0.441,3.041,1.079,4.467c0.829,1.852,2.059,3.39,3.67,4.596c0.831,0.622,1.724,1.225,2.68,1.603
		c1.368,0.541,2.811,0.92,4.326,0.76c0.316-0.033,0.643-0.031,0.959,0c1.075,0.107,2.082-0.201,3.092-0.489
		c1.84-0.523,3.383-1.591,4.698-2.911c0.971-0.975,1.741-2.161,2.241-3.525c-1.796,0-3.582,0-5.4,0
		c-0.271,0.275-0.56,0.552-0.827,0.848c-0.779,0.859-1.751,1.408-2.844,1.748c-1.476,0.457-2.899,0.296-4.307-0.336
		c-1.061-0.478-1.962-1.136-2.722-2.01c-0.874-1.006-1.577-2.07-1.893-3.417c-0.138-0.591-0.133-1.158-0.2-1.736
		c-0.062-0.531,0.088-1.688,0.192-2.205c0.212-1.053,0.801-1.891,1.349-2.782c1.112-1.806,2.858-2.656,4.761-3.059
		c1.667-0.352,3.343,0.147,4.781,1.097c0.846,0.559,1.57,1.302,2.35,1.962C331.54,11.991,333.099,11.991,334.844,11.991z
		 M203.631,24.491c-2.741-6.434-5.449-12.788-8.166-19.166c-1.191,0-2.412,0-3.667,0c0,7.667,0,15.288,0,23.001
		c0.81-0.053,1.585,0.07,2.364-0.069c0-6.524,0-12.962,0.002-19.4c0-0.034,0.025-0.072,0.047-0.102
		c0.02-0.029,0.051-0.05,0.087-0.083c2.72,6.553,5.438,13.101,8.144,19.62c0.76,0,1.475,0,2.307,0
		c2.775-6.498,5.466-13.058,8.372-19.55c0,3.231,0,6.463,0,9.695c0,3.27,0,6.538,0,9.845c0.828,0,1.57,0,2.337,0
		c0.025-0.144,0.061-0.255,0.061-0.365c0-7.478-0.004-14.956-0.01-22.433c0-0.034-0.025-0.07-0.048-0.1
		c-0.022-0.032-0.056-0.058-0.079-0.081c-1.198,0-2.393,0-3.569,0C209.092,11.684,206.383,18.038,203.631,24.491z M361.194,28.317
		c2.209-5.491,4.265-11.008,6.343-16.596c2.175,5.592,4.32,11.108,6.452,16.588c1.665,0,3.224,0,4.782-0.003
		c0.032,0,0.069-0.03,0.098-0.055c0.027-0.025,0.047-0.059,0.104-0.131c-0.396-0.886-0.82-1.788-1.207-2.705
		c-0.715-1.696-1.413-3.398-2.108-5.102c-0.508-1.242-0.987-2.495-1.503-3.733c-0.679-1.629-1.388-3.246-2.071-4.874
		c-0.519-1.237-0.981-2.5-1.536-3.72c-0.41-0.903-0.586-1.926-1.26-2.661c-1.198,0-2.345,0-3.548,0
		c-3.175,7.654-6.341,15.29-9.507,22.921c0.046,0.028,0.079,0.066,0.112,0.066C357.904,28.317,359.463,28.317,361.194,28.317z
		 M92.256,28.936c0.294-0.038,0.671-0.135,1.047-0.126c0.986,0.021,1.931-0.208,2.847-0.509c0.69-0.227,1.326-0.621,1.988-0.938
		c1.72-0.823,2.935-2.216,4.106-3.654c0.643-0.789,1.014-1.732,1.436-2.646c0.425-0.92,0.572-1.934,0.68-2.903
		c0.178-1.593,0.037-3.2-0.424-4.771c-0.408-1.39-0.97-2.73-1.889-3.809c-1.35-1.584-2.857-3.018-4.86-3.845
		c-1.271-0.524-2.518-0.978-3.913-0.947c-0.415,0.01-0.833-0.122-1.25-0.188c-0.327,0.065-0.664,0.185-1.003,0.189
		C90.313,4.8,89.609,4.786,88.934,5.04c-1.002,0.377-2.039,0.655-2.959,1.248c-1.179,0.759-2.229,1.638-3.175,2.682
		c-0.99,1.091-1.677,2.328-2.153,3.692c-0.529,1.516-0.78,3.077-0.739,4.696c0.039,1.579,0.475,3.037,1.079,4.473
		c0.641,1.521,1.721,2.686,2.86,3.843c1.241,1.261,2.769,1.999,4.359,2.629c0.935,0.371,1.939,0.544,2.966,0.505
		C91.469,28.796,91.771,28.875,92.256,28.936z M157.082,4.599c-0.385,0.073-0.726,0.203-1.061,0.188
		c-0.715-0.033-1.418,0.032-2.082,0.265c-0.939,0.329-1.91,0.632-2.761,1.13c-1.231,0.72-2.31,1.649-3.283,2.73
		c-1.913,2.122-2.759,4.629-2.921,7.407c-0.055,0.933-0.02,1.865,0.186,2.813c0.197,0.914,0.482,1.778,0.828,2.629
		c0.635,1.56,1.744,2.766,2.926,3.939c1.251,1.244,2.769,1.993,4.367,2.607c0.865,0.332,1.785,0.501,2.729,0.501
		c0.416-0.001,0.833,0.087,1.145,0.123c0.51-0.05,0.931-0.139,1.348-0.121c0.793,0.031,1.549-0.172,2.285-0.384
		c1.19-0.342,2.264-0.963,3.326-1.603c0.973-0.587,1.629-1.501,2.457-2.232c0.6-0.528,1.027-1.193,1.367-1.891
		c0.622-1.28,1.351-2.542,1.268-4.049c0.582-1.633,0.277-3.298-0.098-4.868c-0.729-3.048-2.582-5.437-5.184-7.128
		c-1.717-1.116-3.596-2.007-5.771-1.868C157.82,4.81,157.478,4.673,157.082,4.599z M274.51,28.935
		c0.489-0.053,0.869-0.134,1.247-0.127c0.985,0.019,1.93-0.222,2.846-0.511c0.655-0.207,1.238-0.633,1.871-0.922
		c1.775-0.813,3.007-2.228,4.186-3.713c0.637-0.803,0.999-1.74,1.424-2.651c0.429-0.922,0.563-1.934,0.68-2.904
		c0.195-1.637,0.048-3.3-0.459-4.883c-0.437-1.363-1.01-2.7-1.966-3.779c-1.385-1.564-2.9-2.974-4.907-3.776
		c-1.162-0.465-2.301-0.884-3.572-0.878c-0.497,0.002-0.994-0.106-1.536-0.17c-0.283,0.053-0.621,0.175-0.956,0.167
		c-0.673-0.015-1.327,0.041-1.966,0.252c-1.055,0.35-2.113,0.665-3.065,1.284c-1.144,0.742-2.163,1.586-3.09,2.599
		c-1.906,2.08-2.706,4.569-2.906,7.292c-0.071,0.969-0.039,1.945,0.182,2.934c0.204,0.911,0.493,1.774,0.838,2.626
		c0.632,1.562,1.747,2.763,2.926,3.938c1.251,1.247,2.776,1.979,4.372,2.599c0.866,0.335,1.783,0.507,2.729,0.498
		C273.763,28.805,274.143,28.891,274.51,28.935z M110.2,28.297c0-6.689,0-13.272,0-19.946c4.537,6.739,9.009,13.381,13.444,19.969
		c0.523,0,0.925,0.022,1.323-0.007c0.421-0.03,0.867,0.125,1.26-0.1c0.146-8.905,0.076-21.903-0.116-22.871
		c-0.752,0-1.495,0-2.301,0c0,6.248,0,12.433,0,18.85c-4.288-6.432-8.449-12.671-12.62-18.926c-1.143,0.08-2.29-0.099-3.417,0.096
		c-0.144,9.066-0.071,21.988,0.127,22.934C108.616,28.297,109.33,28.297,110.2,28.297z M306.234,23.93
		c-0.063,0.006-0.126,0.012-0.189,0.018c-4.144-6.215-8.286-12.429-12.445-18.667c-0.538,0-1.098,0-1.656,0
		c-0.585,0.001-1.171,0.004-1.727,0.005c0,7.745,0,15.366,0,22.983c0.802,0,1.544,0,2.357,0c0-6.634,0-13.215,0-19.955
		c4.56,6.773,9.023,13.403,13.427,19.944c0.959,0,1.782,0,2.584,0c0-7.684,0-15.305,0-22.929c-0.798,0-1.541,0-2.351,0
		C306.234,11.562,306.234,17.746,306.234,23.93z M66.76,4.613c-0.315,0.06-0.651,0.174-0.988,0.176
		c-0.63,0.002-1.231,0.091-1.85,0.234c-3.07,0.71-5.463,2.403-7.241,4.956c-0.524,0.752-0.856,1.645-1.231,2.493
		c-0.423,0.957-0.587,2.009-0.691,3.021c-0.168,1.634-0.104,3.296,0.444,4.889c0.479,1.39,1.096,2.682,1.995,3.884
		c0.728,0.973,1.589,1.753,2.534,2.434c1.752,1.262,3.714,2.032,5.912,2.11c0.418,0.015,0.833,0.135,1.041,0.17
		c0.619-0.076,1.038-0.184,1.452-0.167c0.798,0.032,1.528-0.198,2.272-0.429c1.499-0.464,2.878-1.185,4.049-2.198
		c1.226-1.061,2.393-2.22,3.01-3.842c-1.012,0-1.966,0-2.924,0c-0.287,0.626-0.856,1.018-1.313,1.504
		c-1.123,1.194-2.538,1.926-4.075,2.388c-1.221,0.366-2.44,0.505-3.772,0.214c-1.847-0.403-3.453-1.101-4.777-2.441
		c-0.281-0.285-0.578-0.556-0.846-0.851c-1.427-1.569-2.348-3.359-2.407-5.529c-0.007-0.254-0.157-0.506-0.153-0.758
		c0.004-0.303,0.152-0.604,0.151-0.906c-0.002-1.317,0.497-2.514,1.064-3.63c0.604-1.187,1.494-2.23,2.547-3.075
		c0.692-0.556,1.412-1.172,2.227-1.462c1.621-0.578,3.243-1.086,5.08-0.642c1.875,0.454,3.508,1.209,4.878,2.53
		c0.592,0.57,1.096,1.231,1.628,1.836c0.474,0,0.914,0.014,1.353-0.004c0.459-0.019,0.936,0.089,1.439-0.114
		c-0.394-0.868-0.778-1.674-1.411-2.316c-1.104-1.119-2.171-2.256-3.638-2.97c-1.439-0.7-2.859-1.329-4.494-1.324
		C67.647,4.793,67.269,4.688,66.76,4.613z M220.762,28.28c0.13-0.223,0.291-0.442,0.397-0.687c0.802-1.829,1.589-3.665,2.388-5.494
		c0.354-0.811,0.742-1.606,1.086-2.421c0.492-1.164,0.953-2.342,1.439-3.509c0.31-0.745,0.656-1.475,0.961-2.222
		c0.751-1.839,1.487-3.684,2.332-5.781c2.877,6.89,5.657,13.566,8.515,20.123c1.009,0,1.882,0,2.832,0
		c-0.411-0.879-0.825-1.689-1.176-2.527c-0.593-1.414-1.119-2.855-1.722-4.266c-0.589-1.378-1.302-2.706-1.845-4.102
		c-0.836-2.147-1.797-4.239-2.688-6.361c-0.341-0.812-0.617-1.651-0.974-2.456c-0.495-1.118-1.037-2.215-1.528-3.254
		c-1.049,0-1.999,0-2.883,0c-3.261,7.668-6.495,15.278-9.759,22.957C219.025,28.28,219.816,28.28,220.762,28.28z M181.922,19.945
		c0.243-0.109,0.411-0.245,0.586-0.256c1.688-0.104,3.079-0.948,4.171-2.081c1.096-1.138,1.831-2.586,1.726-4.295
		c-0.031-0.517-0.01-1.038-0.003-1.558c0.009-0.83-0.265-1.587-0.559-2.346c-0.354-0.916-1.067-1.539-1.724-2.217
		c-1.17-1.209-2.695-1.761-4.265-1.87c-2.563-0.177-5.134-0.438-7.714-0.286c-0.428,0.025-0.857,0.003-1.296,0.003
		c0,0.844,0,1.586,0,2.4c0.354,0,0.667,0,0.978,0c1.998,0,3.996-0.037,5.992,0.018c0.801,0.022,1.616,0.175,2.391,0.391
		c1.955,0.545,3.156,1.781,3.65,3.822c0.357,1.481-0.021,2.708-0.852,3.817c-1.208,1.613-2.965,2.198-4.915,2.266
		c-0.974,0.034-1.95,0.004-3.024,0.008c2.704,3.607,5.312,7.085,7.887,10.52c1.082,0,2.113,0,3.307,0
		C186.115,25.462,184.05,22.746,181.922,19.945z M246.532,7.434c0,7.053,0,13.947,0,20.834c0.808,0,1.549,0,2.264,0
		c0.041-0.085,0.072-0.119,0.072-0.152c0.006-6.549,0.009-13.098,0.013-19.647c0-0.28,0.004-0.559,0.012-0.838
		c0.001-0.033,0.033-0.067,0.057-0.096c0.024-0.03,0.057-0.055,0.085-0.083c1.7-0.046,3.404,0.035,5.064-0.044
		c0-0.847,0-1.59,0-2.319c-4.319,0-8.576,0-12.856,0c0,0.791,0,1.532,0,2.346C242.983,7.434,244.685,7.434,246.532,7.434z
		 M20.415,17.338c4.298,0,8.479,0,12.733,0c0,3.68,0,7.301,0,10.937c0.336,0,0.599,0,0.896,0c0-7.665,0-15.285,0-22.992
		c-0.332,0.023-0.623,0.043-0.933,0.064c0,3.637,0,7.194-0.001,10.752c0,0.035-0.018,0.074-0.038,0.105
		c-0.021,0.033-0.055,0.057-0.056,0.058c-4.209,0-8.39,0-12.644,0c0-3.679,0-7.301,0-10.937c-0.336,0-0.599,0-0.896,0
		c0,7.665,0,15.285,0,22.993c0.332-0.023,0.623-0.044,0.939-0.065C20.415,24.581,20.415,20.988,20.415,17.338z M258.906,28.294
		c0-7.728,0-15.344,0-22.967c-0.797,0-1.539,0-2.275,0c-0.19,2.409-0.119,22.116,0.076,22.967
		C257.424,28.294,258.138,28.294,258.906,28.294z M130.822,28.262c0.851,0,1.594,0,2.406,0c0-3.44,0-6.821,0-10.275
		c2.975,0,5.876,0,8.813,0c0-0.736,0-1.398,0-2.056c-1.728-0.176-10.375-0.13-11.22,0.054
		C130.822,20.058,130.822,24.13,130.822,28.262z M442.532,5.337c-4.21,0-8.307,0-12.403,0c0,1.278,0,2.499,0,3.715
		c2.483,0.188,11.58,0.119,12.403-0.087C442.532,7.77,442.532,6.578,442.532,5.337z M442.537,24.532c-4.205,0-8.303,0-12.413,0
		c0,1.272,0,2.494,0,3.71c2.022,0.176,11.567,0.12,12.413-0.066C442.537,26.981,442.537,25.788,442.537,24.532z M430.107,18.903
		c4.13,0,8.146,0,12.164,0c0-1.278,0-2.499,0-3.715c-2.479-0.188-11.331-0.121-12.164,0.085
		C430.107,16.47,430.107,17.661,430.107,18.903z M10.85,28.277c0-7.4,0-14.695,0-22.061c2.083,0,4.104,0,6.148,0
		c0-0.334,0-0.596,0-0.854C14.909,5.169,3.821,5.221,3.594,5.449C3.61,5.688,3.629,5.951,3.652,6.28c2.099,0,4.12,0,6.201,0
		c0,7.366,0,14.66,0,21.997C10.178,28.277,10.44,28.277,10.85,28.277z M130.845,7.143c3.956,0,7.812,0,11.665,0
		c0-0.721,0-1.383,0-2.066c-3.908,0-7.764,0-11.665,0C130.845,5.773,130.845,6.435,130.845,7.143z M51.574,16.374
		c-4.288,0-8.463,0-12.646,0c0,0.235,0,0.417,0,0.596c2.438,0.192,12.454,0.126,12.671-0.091
		C51.592,16.736,51.584,16.582,51.574,16.374z M38.927,5.943c4.273,0,8.449,0,12.622,0c0-0.241,0-0.422,0-0.628
		c-4.226,0-8.402,0-12.622,0C38.927,5.533,38.927,5.715,38.927,5.943z M51.575,27.651c-4.285,0-8.46,0-12.648,0
		c0,0.233,0,0.416,0,0.595c2.301,0.19,12.455,0.131,12.648-0.063C51.575,28.021,51.575,27.867,51.575,27.651z"/>
	<path class="st1" d="M426.227,12.228c-1.762,0-3.399,0-5.127,0c-0.23-0.226-0.585-0.457-0.777-0.785
		c-0.52-0.888-1.395-1.389-2.221-1.793c-1.056-0.516-2.223-0.921-3.476-0.774c-1.561,0.183-2.983,0.668-4.28,1.597
		c-1.534,1.098-2.307,2.657-2.908,4.354c-0.051,0.144-0.143,0.285-0.15,0.431c-0.021,0.399,0.06,0.815-0.028,1.195
		c-0.078,0.337,0.012,0.638,0.002,0.948c-0.061,1.874,0.841,3.371,1.92,4.742c0.99,1.258,2.456,1.862,3.955,2.334
		c0.756,0.238,1.536,0.28,2.325,0.246c1.22-0.053,2.395-0.371,3.405-0.999c1.16-0.721,2.254-1.591,2.745-3.083
		c-1.553-0.001-3.128,0-4.703-0.001c-1.56,0-3.119,0-4.75,0c-0.157-0.659-0.056-1.332-0.074-1.994
		c-0.019-0.671-0.004-1.342-0.004-2.047c5.146,0,10.208,0,15.342,0c0.101,1.683-0.241,3.252-0.837,4.777
		c-0.557,1.426-1.365,2.745-2.425,3.803c-1.43,1.427-3.139,2.534-5.108,3.132c-1.041,0.315-2.097,0.59-3.21,0.496
		c-0.437-0.036-0.881-0.025-1.319-0.002c-2.606,0.134-4.843-0.905-6.95-2.262c-1.717-1.105-2.925-2.695-3.8-4.521
		c-0.396-0.825-0.629-1.715-0.847-2.619c-0.334-1.385-0.239-2.767-0.164-4.131c0.057-1.009,0.405-2.035,0.793-2.983
		c0.578-1.41,1.404-2.665,2.497-3.783c1.544-1.578,3.299-2.686,5.423-3.278c0.791-0.22,1.556-0.467,2.387-0.43
		c0.479,0.021,0.961,0.02,1.439,0.001c2.84-0.109,5.349,0.864,7.551,2.542c1.474,1.123,2.641,2.584,3.368,4.334
		C426.274,11.804,426.227,11.977,426.227,12.228z"/>
	<path class="st1" d="M381.383,28.262c0-7.648,0-15.238,0-22.945c0.8-0.077,1.626-0.025,2.447-0.035
		c0.8-0.008,1.599-0.002,2.505-0.002c3.165,5.347,6.143,10.861,9.411,16.51c0-5.644,0-11.024,0-16.457c1.45,0,2.832,0,4.274,0
		c0,7.608,0,15.228,0,22.962c-0.776,0.055-1.603,0.018-2.427,0.023c-0.799,0.007-1.598,0.002-2.502,0.002
		c-3.063-5.333-6.149-10.706-9.235-16.079c-0.052,0.018-0.104,0.035-0.156,0.053c0,5.303,0,10.606,0,15.967
		C384.255,28.262,382.873,28.262,381.383,28.262z"/>
	<path class="st1" d="M337.257,5.304c1.411,0,2.765,0,4.224,0c0.085,1.008,0.027,2.035,0.037,3.057
		c0.011,1.039,0.002,2.079,0.002,3.118c0,1.03,0,2.06,0,3.124c2.75,0,5.411,0,8.147,0c0-3.098,0-6.16,0-9.272
		c1.454,0,2.837,0,4.276,0c0,7.617,0,15.237,0,22.95c-1.351,0.088-2.736,0.014-4.203,0.047c-0.121-1.078-0.042-2.146-0.058-3.208
		c-0.014-1.039-0.003-2.079-0.003-3.118c0-1.07,0-2.14,0-3.244c-2.749,0-5.411,0-8.146,0c0,3.179,0,6.32,0,9.513
		c-1.455,0-2.837,0-4.276,0C337.257,20.652,337.257,13.032,337.257,5.304z"/>
	<path class="st1" d="M334.844,11.991c-1.745,0-3.304,0-4.858,0c-0.779-0.66-1.504-1.403-2.35-1.962
		c-1.438-0.95-3.114-1.449-4.781-1.097c-1.902,0.402-3.648,1.252-4.761,3.059c-0.548,0.891-1.137,1.729-1.349,2.782
		c-0.104,0.517-0.254,1.674-0.192,2.205c0.067,0.578,0.062,1.145,0.2,1.736c0.315,1.347,1.019,2.411,1.893,3.417
		c0.76,0.874,1.661,1.532,2.722,2.01c1.407,0.632,2.831,0.793,4.307,0.336c1.093-0.34,2.064-0.889,2.844-1.748
		c0.268-0.296,0.557-0.572,0.827-0.848c1.818,0,3.604,0,5.4,0c-0.5,1.364-1.271,2.551-2.241,3.525
		c-1.315,1.32-2.858,2.388-4.698,2.911c-1.01,0.288-2.017,0.597-3.092,0.489c-0.316-0.031-0.643-0.033-0.959,0
		c-1.516,0.16-2.958-0.219-4.326-0.76c-0.956-0.378-1.849-0.98-2.68-1.603c-1.611-1.206-2.841-2.744-3.67-4.596
		c-0.638-1.426-1.093-2.888-1.079-4.467c0.002-0.28,0.007-0.56-0.001-0.84c-0.067-2.535,0.713-4.793,2.18-6.846
		c1.752-2.452,4.114-3.934,7.02-4.678c1.106-0.283,2.194-0.178,3.291-0.209c2.593-0.075,4.813,0.861,6.879,2.399
		c1.462,1.088,2.448,2.482,3.277,4.04C334.745,11.433,334.76,11.666,334.844,11.991z"/>
	<path class="st1" d="M203.631,24.491c2.752-6.453,5.461-12.808,8.181-19.188c1.177,0,2.371,0,3.569,0
		c0.023,0.023,0.057,0.048,0.079,0.081c0.022,0.03,0.048,0.066,0.048,0.1c0.006,7.477,0.01,14.955,0.01,22.433
		c0,0.11-0.035,0.222-0.061,0.365c-0.767,0-1.509,0-2.337,0c0-3.307,0-6.575,0-9.845c0-3.232,0-6.464,0-9.695
		c-2.906,6.492-5.597,13.052-8.372,19.55c-0.832,0-1.547,0-2.307,0c-2.705-6.519-5.424-13.067-8.144-19.62
		c-0.036,0.034-0.067,0.055-0.087,0.083c-0.021,0.03-0.047,0.068-0.047,0.102c-0.002,6.438-0.002,12.875-0.002,19.4
		c-0.779,0.14-1.555,0.017-2.364,0.069c0-7.714,0-15.335,0-23.001c1.255,0,2.476,0,3.667,0
		C198.182,11.703,200.89,18.058,203.631,24.491z"/>
	<path class="st1" d="M361.194,28.317c-1.731,0-3.29,0-4.85-0.003c-0.033,0-0.066-0.038-0.112-0.066
		c3.166-7.632,6.332-15.267,9.507-22.921c1.203,0,2.35,0,3.548,0c0.674,0.735,0.85,1.758,1.26,2.661
		c0.555,1.22,1.018,2.483,1.536,3.72c0.684,1.627,1.393,3.244,2.071,4.874c0.516,1.238,0.995,2.491,1.503,3.733
		c0.695,1.703,1.394,3.405,2.108,5.102c0.387,0.917,0.811,1.819,1.207,2.705c-0.057,0.072-0.076,0.105-0.104,0.131
		c-0.028,0.024-0.065,0.055-0.098,0.055c-1.559,0.003-3.117,0.003-4.782,0.003c-2.132-5.48-4.277-10.996-6.452-16.588
		C365.459,17.31,363.403,22.826,361.194,28.317z"/>
	<path class="st1" d="M92.256,28.936c-0.485-0.061-0.787-0.14-1.085-0.128c-1.027,0.039-2.031-0.134-2.966-0.505
		c-1.591-0.63-3.118-1.368-4.359-2.629c-1.139-1.157-2.219-2.321-2.86-3.843c-0.604-1.436-1.04-2.894-1.079-4.473
		c-0.041-1.62,0.21-3.181,0.739-4.696c0.476-1.364,1.164-2.601,2.153-3.692c0.947-1.044,1.997-1.923,3.175-2.682
		c0.921-0.593,1.957-0.871,2.959-1.248c0.675-0.254,1.379-0.24,2.086-0.251c0.339-0.005,0.676-0.124,1.003-0.189
		c0.417,0.067,0.834,0.198,1.25,0.188c1.396-0.031,2.642,0.422,3.913,0.947c2.003,0.827,3.511,2.261,4.86,3.845
		c0.919,1.078,1.48,2.418,1.889,3.809c0.461,1.571,0.602,3.178,0.424,4.771c-0.108,0.97-0.255,1.983-0.68,2.903
		c-0.421,0.913-0.792,1.856-1.436,2.646c-1.171,1.438-2.386,2.831-4.106,3.654c-0.662,0.316-1.297,0.711-1.988,0.938
		c-0.916,0.301-1.86,0.529-2.847,0.509C92.927,28.801,92.55,28.897,92.256,28.936z M101.935,16.721
		c-0.05-0.174-0.174-0.396-0.164-0.611c0.029-0.597-0.115-1.154-0.241-1.728c-0.406-1.85-1.455-3.359-2.719-4.652
		c-0.924-0.946-2.111-1.657-3.422-2.106c-0.955-0.328-1.907-0.612-2.913-0.655c-0.661-0.028-1.308,0.054-1.972,0.2
		c-0.949,0.209-1.858,0.478-2.717,0.916c-1.227,0.625-2.179,1.576-3.081,2.598c-1.161,1.316-1.757,2.885-2.141,4.555
		c-0.122,0.53,0.042,1.072-0.132,1.637c-0.145,0.47,0.029,1.06,0.137,1.581c0.108,0.521,0.31,1.023,0.467,1.534
		c0.455,1.481,1.281,2.773,2.377,3.812c0.999,0.945,2.185,1.686,3.516,2.188c0.879,0.333,1.777,0.499,2.68,0.634
		c1.178,0.177,2.322-0.169,3.445-0.477c1.489-0.408,2.744-1.291,3.836-2.325c0.896-0.849,1.649-1.88,2.102-3.058
		c0.386-1.002,0.888-1.985,0.776-3.124C101.746,17.387,101.859,17.12,101.935,16.721z"/>
	<path class="st1" d="M157.082,4.599c0.396,0.074,0.738,0.211,1.071,0.189c2.175-0.139,4.054,0.752,5.771,1.868
		c2.602,1.692,4.455,4.081,5.184,7.128c0.375,1.569,0.68,3.235,0.098,4.868c0.083,1.507-0.646,2.769-1.268,4.049
		c-0.34,0.697-0.768,1.362-1.367,1.891c-0.828,0.731-1.484,1.646-2.457,2.232c-1.062,0.64-2.136,1.261-3.326,1.603
		c-0.736,0.212-1.492,0.415-2.285,0.384c-0.417-0.018-0.838,0.071-1.348,0.121c-0.312-0.036-0.729-0.124-1.145-0.123
		c-0.943,0-1.863-0.169-2.729-0.501c-1.599-0.614-3.116-1.363-4.367-2.607c-1.182-1.174-2.291-2.38-2.926-3.939
		c-0.346-0.851-0.631-1.715-0.828-2.629c-0.205-0.948-0.24-1.881-0.186-2.813c0.162-2.778,1.008-5.285,2.921-7.407
		c0.974-1.081,2.052-2.01,3.283-2.73c0.851-0.498,1.821-0.801,2.761-1.13c0.664-0.233,1.367-0.298,2.082-0.265
		C156.356,4.802,156.697,4.671,157.082,4.599z M166.975,16.72c-0.049-0.172-0.174-0.394-0.163-0.61
		c0.028-0.596-0.114-1.153-0.241-1.728c-0.403-1.851-1.457-3.357-2.719-4.652c-0.922-0.947-2.109-1.658-3.422-2.107
		c-0.954-0.328-1.906-0.612-2.912-0.655c-0.662-0.028-1.309,0.054-1.972,0.2c-0.949,0.208-1.868,0.459-2.714,0.92
		c-1.162,0.634-2.135,1.49-3.01,2.5c-1.181,1.36-1.816,2.941-2.216,4.648c-0.124,0.53,0.042,1.072-0.132,1.638
		c-0.145,0.471,0.029,1.06,0.137,1.58c0.107,0.521,0.311,1.023,0.467,1.534c0.455,1.481,1.281,2.774,2.377,3.812
		c0.998,0.945,2.184,1.686,3.516,2.189c0.879,0.333,1.776,0.498,2.68,0.634c1.178,0.177,2.322-0.169,3.445-0.477
		c1.488-0.407,2.742-1.291,3.836-2.325c0.897-0.848,1.648-1.879,2.103-3.057c0.386-1.003,0.888-1.985,0.776-3.124
		C166.786,17.387,166.898,17.121,166.975,16.72z"/>
	<path class="st1" d="M274.51,28.935c-0.367-0.044-0.747-0.13-1.125-0.127c-0.945,0.009-1.862-0.163-2.729-0.498
		c-1.596-0.619-3.121-1.352-4.372-2.599c-1.179-1.175-2.294-2.376-2.926-3.938c-0.345-0.852-0.634-1.715-0.838-2.626
		c-0.221-0.988-0.253-1.965-0.182-2.934c0.2-2.722,1-5.211,2.906-7.292c0.927-1.012,1.946-1.857,3.09-2.599
		c0.952-0.619,2.011-0.934,3.065-1.284c0.639-0.212,1.293-0.268,1.966-0.252c0.335,0.007,0.673-0.114,0.956-0.167
		c0.542,0.063,1.039,0.172,1.536,0.17c1.271-0.006,2.41,0.413,3.572,0.878c2.007,0.803,3.522,2.212,4.907,3.776
		c0.956,1.079,1.529,2.416,1.966,3.779c0.507,1.583,0.654,3.247,0.459,4.883c-0.116,0.971-0.251,1.982-0.68,2.904
		c-0.425,0.911-0.787,1.849-1.424,2.651c-1.179,1.485-2.41,2.899-4.186,3.713c-0.633,0.289-1.216,0.715-1.871,0.922
		c-0.916,0.289-1.86,0.529-2.846,0.511C275.379,28.801,274.999,28.882,274.51,28.935z M284.358,16.728
		c-0.069-0.192-0.179-0.368-0.19-0.551c-0.034-0.544-0.118-1.072-0.212-1.611c-0.339-1.934-1.437-3.447-2.697-4.789
		c-0.849-0.902-1.985-1.561-3.185-2.064c-1.898-0.797-3.834-0.996-5.798-0.458c-2.873,0.787-4.967,2.591-6.349,5.214
		c-0.62,1.175-0.959,2.423-1.001,3.777c-0.017,0.521,0.074,1.031,0.027,1.544c-0.051,0.561,0.088,1.083,0.248,1.605
		c0.497,1.616,1.27,3.115,2.479,4.274c1.021,0.979,2.205,1.79,3.593,2.286c0.994,0.354,1.989,0.588,3.026,0.681
		c0.668,0.06,1.312-0.076,1.969-0.217c1.14-0.245,2.249-0.544,3.206-1.226c0.944-0.672,1.889-1.302,2.603-2.299
		c1.158-1.616,2.042-3.277,2.089-5.306C284.174,17.328,284.279,17.07,284.358,16.728z"/>
	<path class="st1" d="M110.2,28.297c-0.87,0-1.584,0-2.299,0c-0.198-0.946-0.271-13.868-0.127-22.934
		c1.127-0.195,2.274-0.016,3.417-0.096c4.17,6.254,8.332,12.494,12.62,18.926c0-6.417,0-12.602,0-18.85c0.806,0,1.549,0,2.301,0
		c0.192,0.968,0.262,13.966,0.116,22.871c-0.393,0.225-0.838,0.069-1.26,0.1c-0.397,0.029-0.799,0.007-1.323,0.007
		c-4.436-6.588-8.907-13.23-13.444-19.969C110.2,15.025,110.2,21.607,110.2,28.297z"/>
	<path class="st1" d="M306.234,23.93c0-6.184,0-12.368,0-18.601c0.81,0,1.553,0,2.351,0c0,7.624,0,15.245,0,22.929
		c-0.802,0-1.625,0-2.584,0c-4.403-6.541-8.867-13.171-13.427-19.944c0,6.74,0,13.321,0,19.955c-0.813,0-1.556,0-2.357,0
		c0-7.617,0-15.238,0-22.983c0.556-0.001,1.142-0.004,1.727-0.005c0.559-0.001,1.118,0,1.656,0
		c4.159,6.239,8.302,12.453,12.445,18.667C306.108,23.941,306.171,23.936,306.234,23.93z"/>
	<path class="st1" d="M66.76,4.613c0.509,0.075,0.887,0.18,1.265,0.178c1.635-0.005,3.055,0.624,4.494,1.324
		c1.467,0.714,2.535,1.851,3.638,2.97c0.633,0.642,1.017,1.448,1.411,2.316c-0.503,0.204-0.979,0.095-1.439,0.114
		c-0.439,0.018-0.879,0.004-1.353,0.004c-0.532-0.605-1.036-1.266-1.628-1.836c-1.37-1.32-3.004-2.076-4.878-2.53
		c-1.836-0.444-3.458,0.064-5.08,0.642c-0.814,0.291-1.534,0.906-2.227,1.462c-1.053,0.845-1.943,1.889-2.547,3.075
		c-0.568,1.116-1.066,2.312-1.064,3.63c0,0.302-0.147,0.603-0.151,0.906c-0.004,0.252,0.146,0.504,0.153,0.758
		c0.059,2.17,0.979,3.96,2.407,5.529c0.269,0.295,0.565,0.565,0.846,0.851c1.325,1.341,2.93,2.038,4.777,2.441
		c1.332,0.291,2.551,0.152,3.772-0.214c1.537-0.462,2.952-1.193,4.075-2.388c0.458-0.486,1.026-0.878,1.313-1.504
		c0.958,0,1.912,0,2.924,0c-0.618,1.622-1.785,2.781-3.01,3.842c-1.171,1.014-2.55,1.734-4.049,2.198
		c-0.744,0.23-1.474,0.461-2.272,0.429c-0.414-0.017-0.833,0.091-1.452,0.167c-0.208-0.035-0.623-0.155-1.041-0.17
		c-2.198-0.078-4.16-0.849-5.912-2.11c-0.945-0.681-1.806-1.461-2.534-2.434c-0.899-1.202-1.516-2.494-1.995-3.884
		c-0.548-1.593-0.612-3.255-0.444-4.889c0.104-1.011,0.269-2.063,0.691-3.021c0.375-0.848,0.707-1.74,1.231-2.493
		c1.778-2.553,4.171-4.246,7.241-4.956c0.619-0.143,1.22-0.232,1.85-0.234C66.109,4.788,66.445,4.673,66.76,4.613z"/>
	<path class="st1" d="M220.762,28.28c-0.945,0-1.736,0-2.623,0c3.264-7.679,6.498-15.288,9.759-22.957c0.884,0,1.834,0,2.883,0
		c0.491,1.039,1.033,2.136,1.528,3.254c0.356,0.804,0.633,1.644,0.974,2.456c0.891,2.123,1.852,4.214,2.688,6.361
		c0.543,1.396,1.256,2.724,1.845,4.102c0.603,1.41,1.129,2.852,1.722,4.266c0.351,0.838,0.765,1.648,1.176,2.527
		c-0.95,0-1.823,0-2.832,0c-2.857-6.557-5.638-13.232-8.515-20.123c-0.845,2.097-1.581,3.942-2.332,5.781
		c-0.305,0.747-0.651,1.477-0.961,2.222c-0.486,1.167-0.947,2.345-1.439,3.509c-0.344,0.814-0.731,1.61-1.086,2.421
		c-0.799,1.829-1.586,3.665-2.388,5.494C221.053,27.838,220.892,28.058,220.762,28.28z"/>
	<path class="st1" d="M181.922,19.945c2.128,2.801,4.193,5.517,6.336,8.336c-1.193,0-2.225,0-3.307,0
		c-2.575-3.435-5.183-6.912-7.887-10.52c1.074-0.004,2.051,0.026,3.024-0.008c1.95-0.067,3.707-0.652,4.915-2.266
		c0.83-1.11,1.209-2.336,0.852-3.817c-0.494-2.041-1.695-3.276-3.65-3.822c-0.774-0.216-1.59-0.369-2.391-0.391
		c-1.996-0.055-3.994-0.018-5.992-0.018c-0.311,0-0.623,0-0.978,0c0-0.813,0-1.556,0-2.4c0.438,0,0.868,0.021,1.296-0.003
		c2.58-0.152,5.15,0.109,7.714,0.286c1.569,0.109,3.095,0.66,4.265,1.87c0.656,0.678,1.369,1.301,1.724,2.217
		c0.294,0.759,0.567,1.517,0.559,2.346c-0.007,0.52-0.028,1.041,0.003,1.558c0.105,1.709-0.63,3.157-1.726,4.295
		c-1.092,1.133-2.483,1.978-4.171,2.081C182.333,19.7,182.165,19.836,181.922,19.945z"/>
	<path class="st1" d="M246.532,7.434c-1.848,0-3.549,0-5.29,0c0-0.813,0-1.555,0-2.346c4.28,0,8.537,0,12.856,0
		c0,0.729,0,1.472,0,2.319c-1.66,0.08-3.364-0.002-5.064,0.045c-0.028,0.027-0.061,0.052-0.085,0.082
		c-0.023,0.029-0.056,0.063-0.057,0.096c-0.008,0.279-0.012,0.559-0.012,0.838c-0.004,6.549-0.007,13.098-0.013,19.647
		c0,0.033-0.031,0.067-0.072,0.152c-0.715,0-1.456,0-2.264,0C246.532,21.381,246.532,14.487,246.532,7.434z"/>
	<path class="st1" d="M20.415,17.338c0,3.65,0,7.243,0,10.915c-0.316,0.021-0.607,0.042-0.939,0.065c0-7.708,0-15.328,0-22.993
		c0.297,0,0.56,0,0.896,0c0,3.636,0,7.257,0,10.937c4.254,0,8.435,0,12.644,0c0.001-0.001,0.034-0.025,0.056-0.058
		c0.02-0.031,0.038-0.07,0.038-0.105c0.001-3.558,0.001-7.115,0.001-10.752c0.31-0.021,0.601-0.042,0.933-0.064
		c0,7.708,0,15.327,0,22.992c-0.297,0-0.56,0-0.896,0c0-3.636,0-7.257,0-10.937C28.894,17.338,24.713,17.338,20.415,17.338z"/>
	<path class="st1" d="M258.906,28.294c-0.769,0-1.482,0-2.199,0c-0.195-0.851-0.267-20.558-0.076-22.967c0.736,0,1.479,0,2.275,0
		C258.906,12.95,258.906,20.566,258.906,28.294z"/>
	<path class="st1" d="M130.822,28.262c0-4.132,0-8.204,0-12.277c0.845-0.185,9.492-0.23,11.22-0.054c0,0.658,0,1.32,0,2.056
		c-2.937,0-5.839,0-8.813,0c0,3.454,0,6.835,0,10.275C132.416,28.262,131.673,28.262,130.822,28.262z"/>
	<path class="st1" d="M442.532,5.337c0,1.241,0,2.433,0,3.628c-0.823,0.206-9.92,0.274-12.403,0.087c0-1.216,0-2.437,0-3.715
		C434.226,5.337,438.322,5.337,442.532,5.337z"/>
	<path class="st1" d="M442.537,24.532c0,1.256,0,2.449,0,3.644c-0.846,0.187-10.391,0.242-12.413,0.066c0-1.216,0-2.438,0-3.71
		C434.234,24.532,438.332,24.532,442.537,24.532z"/>
	<path class="st1" d="M430.107,18.903c0-1.242,0-2.434,0-3.629c0.833-0.207,9.686-0.274,12.164-0.085c0,1.216,0,2.437,0,3.715
		C438.254,18.903,434.237,18.903,430.107,18.903z"/>
	<path class="st1" d="M10.85,28.277c-0.41,0-0.672,0-0.997,0c0-7.337,0-14.631,0-21.997c-2.081,0-4.103,0-6.201,0
		C3.629,5.951,3.61,5.688,3.594,5.449c0.227-0.228,11.315-0.28,13.404-0.086c0,0.258,0,0.521,0,0.854c-2.044,0-4.065,0-6.148,0
		C10.85,13.583,10.85,20.877,10.85,28.277z"/>
	<path class="st1" d="M130.845,7.143c0-0.708,0-1.369,0-2.066c3.901,0,7.757,0,11.665,0c0,0.683,0,1.345,0,2.066
		C138.657,7.143,134.801,7.143,130.845,7.143z"/>
	<path class="st1" d="M51.574,16.374c0.011,0.208,0.019,0.362,0.026,0.505c-0.217,0.217-10.233,0.283-12.671,0.091
		c0-0.178,0-0.36,0-0.596C43.11,16.374,47.286,16.374,51.574,16.374z"/>
	<path class="st1" d="M38.927,5.943c0-0.229,0-0.41,0-0.628c4.22,0,8.396,0,12.622,0c0,0.206,0,0.387,0,0.628
		C47.376,5.943,43.2,5.943,38.927,5.943z"/>
	<path class="st1" d="M51.575,27.651c0,0.216,0,0.369,0,0.531c-0.193,0.194-10.347,0.254-12.648,0.063c0-0.179,0-0.361,0-0.595
		C43.114,27.651,47.29,27.651,51.575,27.651z"/>
	<path class="st0" d="M101.935,16.721c-0.076,0.399-0.189,0.666-0.164,0.919c0.111,1.139-0.391,2.122-0.776,3.124
		c-0.453,1.178-1.206,2.209-2.102,3.058c-1.093,1.034-2.348,1.917-3.836,2.325c-1.123,0.308-2.267,0.653-3.445,0.477
		c-0.903-0.135-1.801-0.301-2.68-0.634c-1.331-0.503-2.517-1.243-3.516-2.188c-1.096-1.039-1.922-2.331-2.377-3.812
		c-0.158-0.511-0.359-1.013-0.467-1.534c-0.107-0.521-0.282-1.11-0.137-1.581c0.173-0.565,0.01-1.107,0.132-1.637
		c0.384-1.67,0.98-3.239,2.141-4.555c0.901-1.022,1.854-1.973,3.081-2.598c0.859-0.438,1.768-0.707,2.717-0.916
		c0.664-0.146,1.311-0.228,1.972-0.2c1.006,0.042,1.958,0.327,2.913,0.655c1.311,0.45,2.498,1.16,3.422,2.106
		c1.264,1.293,2.313,2.802,2.719,4.652c0.126,0.574,0.27,1.131,0.241,1.728C101.761,16.325,101.885,16.547,101.935,16.721z"/>
	<path class="st0" d="M166.975,16.72c-0.076,0.401-0.188,0.667-0.164,0.921c0.111,1.139-0.391,2.121-0.776,3.124
		c-0.454,1.178-1.205,2.209-2.103,3.057c-1.094,1.034-2.348,1.918-3.836,2.325c-1.123,0.308-2.268,0.653-3.445,0.477
		c-0.903-0.136-1.801-0.301-2.68-0.634c-1.332-0.504-2.518-1.244-3.516-2.189c-1.096-1.038-1.922-2.331-2.377-3.812
		c-0.156-0.511-0.359-1.013-0.467-1.534c-0.107-0.521-0.281-1.109-0.137-1.58c0.174-0.565,0.008-1.107,0.132-1.638
		c0.399-1.708,1.035-3.288,2.216-4.648c0.875-1.01,1.848-1.866,3.01-2.5c0.846-0.461,1.765-0.711,2.714-0.92
		c0.663-0.146,1.31-0.228,1.972-0.2c1.006,0.043,1.958,0.328,2.912,0.655c1.312,0.449,2.5,1.16,3.422,2.107
		c1.262,1.294,2.315,2.801,2.719,4.652c0.127,0.575,0.27,1.132,0.241,1.728C166.801,16.326,166.926,16.548,166.975,16.72z"/>
	<path class="st0" d="M284.358,16.728c-0.079,0.343-0.185,0.601-0.191,0.861c-0.047,2.028-0.931,3.689-2.089,5.306
		c-0.714,0.997-1.658,1.627-2.603,2.299c-0.957,0.682-2.066,0.98-3.206,1.226c-0.657,0.141-1.301,0.276-1.969,0.217
		c-1.037-0.093-2.032-0.326-3.026-0.681c-1.388-0.496-2.572-1.308-3.593-2.286c-1.21-1.159-1.982-2.658-2.479-4.274
		c-0.16-0.522-0.299-1.045-0.248-1.605c0.047-0.513-0.044-1.023-0.027-1.544c0.042-1.354,0.381-2.602,1.001-3.777
		c1.382-2.623,3.476-4.427,6.349-5.214c1.964-0.538,3.899-0.339,5.798,0.458c1.199,0.503,2.336,1.162,3.185,2.064
		c1.261,1.341,2.358,2.855,2.697,4.789c0.094,0.539,0.178,1.067,0.212,1.611C284.18,16.359,284.289,16.536,284.358,16.728z"/>
</g>
</svg>
